<svg id="Component_1_1" data-name="Component 1 – 1" xmlns="http://www.w3.org/2000/svg" xmlns:xlink="http://www.w3.org/1999/xlink" width="439.3" height="113" viewBox="0 0 439.3 113">
  <defs>
    <linearGradient id="linear-gradient" x1="0.417" y1="0.449" x2="0.833" y2="0.933" gradientUnits="objectBoundingBox">
      <stop offset="0" stop-opacity="0.102"/>
      <stop offset="1" stop-opacity="0"/>
    </linearGradient>
    <linearGradient id="linear-gradient-2" x1="0.091" y1="0.262" x2="1.056" y2="0.753" gradientUnits="objectBoundingBox">
      <stop offset="0" stop-color="#fff" stop-opacity="0.2"/>
      <stop offset="1" stop-color="#fff" stop-opacity="0"/>
    </linearGradient>
  </defs>
  <g id="iconfinder_Office_post_it_postit_note_notes_3442070" transform="translate(0 1.304)">
    <path id="Path_1" data-name="Path 1" d="M14.763,3H87.984a9.774,9.774,0,0,1,9.763,9.763V85.984a9.774,9.774,0,0,1-9.763,9.763H14.763A9.774,9.774,0,0,1,5,85.984V12.763A9.774,9.774,0,0,1,14.763,3Z" transform="translate(19.407 7.763)" fill="#ffda02"/>
    <path id="Path_2" data-name="Path 2" d="M87.984,29.513H14.763A9.774,9.774,0,0,1,5,19.75v1.22a9.774,9.774,0,0,0,9.763,9.763H87.984a9.774,9.774,0,0,0,9.763-9.763V19.75A9.774,9.774,0,0,1,87.984,29.513Z" transform="translate(19.407 72.777)" opacity="0.05"/>
    <path id="Path_3" data-name="Path 3" d="M14.763,3H87.984a9.774,9.774,0,0,1,9.763,9.763v1.22A9.774,9.774,0,0,0,87.984,4.22H14.763A9.774,9.774,0,0,0,5,13.983v-1.22A9.774,9.774,0,0,1,14.763,3Z" transform="translate(19.407 7.763)" fill="#fff" opacity="0.2"/>
    <path id="Path_4" data-name="Path 4" d="M.453,74.8,20.312,8.584A10.805,10.805,0,0,1,33.584,1.433L99.793,21.3a10.594,10.594,0,0,1,7.6,10.212,10.461,10.461,0,0,1-.453,3.063L87.079,100.792a10.662,10.662,0,0,1-13.271,7.152L7.6,88.076A10.594,10.594,0,0,1,0,77.864,10.463,10.463,0,0,1,.453,74.8Z" transform="translate(0 0)" fill="#f2f2f2"/>
    <path id="Path_5" data-name="Path 5" d="M75.878,41.319a11.021,11.021,0,0,1-3.119-.448L5.3,21A10.962,10.962,0,0,1,.368,17.966a10.674,10.674,0,0,0,5.8,4.258L72.379,42.092a10.647,10.647,0,0,0,12.863-6.053A10.831,10.831,0,0,1,75.878,41.319Z" transform="translate(1.429 65.852)" opacity="0.05"/>
    <path id="Path_6" data-name="Path 6" d="M99.793,22.52,33.584,2.653A10.805,10.805,0,0,0,20.312,9.8L.453,76.021a10.467,10.467,0,0,0-.424,2.634C.009,78.391,0,78.133,0,77.864A10.463,10.463,0,0,1,.453,74.8L20.312,8.584A10.805,10.805,0,0,1,33.584,1.433L99.793,21.3a10.594,10.594,0,0,1,7.6,10.212c0,.147,0,.283-.011.429A10.616,10.616,0,0,0,99.793,22.52Z" transform="translate(0 0)" fill="#fff" opacity="0.2"/>
    <path id="Path_7" data-name="Path 7" d="M21.763,1a9.774,9.774,0,0,1,9.763,9.763H26.644a4.881,4.881,0,0,0-9.763,0V27.848a2.441,2.441,0,1,0,4.881,0v-12.2a2.441,2.441,0,1,1,4.881,0v12.2a7.322,7.322,0,0,1-14.644,0V10.763A9.774,9.774,0,0,1,21.763,1Z" transform="translate(46.577 0)" fill="#ccc"/>
    <g id="Group_2" data-name="Group 2" transform="translate(24.407 23.817)">
      <g id="Group_1" data-name="Group 1">
        <path id="Path_8" data-name="Path 8" d="M84.724,5.674l-.006,0c.017.016.037.029.054.045ZM5,75.6a9.774,9.774,0,0,0,9.763,9.763H39.626L5,74.977ZM84.8,5.753a10.608,10.608,0,0,1,3.181,7.616,10.463,10.463,0,0,1-.453,3.063L67.672,82.649A10.748,10.748,0,0,1,66.4,85.367H87.984A9.774,9.774,0,0,0,97.747,75.6V18.7Z" transform="translate(-5 -5.674)" fill="url(#linear-gradient)"/>
      </g>
    </g>
    <path id="Path_9" data-name="Path 9" d="M107.391,10.763H78.1A9.754,9.754,0,0,0,58.757,8.986L33.584,1.433A10.805,10.805,0,0,0,20.312,8.584L.453,74.8A10.463,10.463,0,0,0,0,77.864,10.594,10.594,0,0,0,7.6,88.076L24.407,93.12v.627a9.774,9.774,0,0,0,9.763,9.763H59.033l14.774,4.433a10.63,10.63,0,0,0,12-4.433h21.588a9.774,9.774,0,0,0,9.763-9.763V20.526A9.774,9.774,0,0,0,107.391,10.763ZM68.34,5.881a4.886,4.886,0,0,1,4.881,4.881H64.678l-1.15-.345A4.851,4.851,0,0,1,68.34,5.881Z" transform="translate(0 0)" fill="url(#linear-gradient-2)"/>
  </g>
  <text id="Scrappy" transform="translate(180.3 76)" fill="#171717" font-size="48" font-family="RockSalt-Regular, Rock Salt"><tspan x="0" y="0">Scrappy</tspan></text>
</svg>
